<svg width="58" height="64" viewBox="0 0 58 64" fill="none" xmlns="http://www.w3.org/2000/svg">
<g clip-path="url(#clip0_5_74)">
<path d="M13.6548 27.0303C13.1434 27.0223 12.642 26.8884 12.1948 26.6403C11.7558 26.4398 11.3614 26.1533 11.0351 25.7977C10.7088 25.4422 10.457 25.0248 10.2948 24.5703C9.85476 23.1003 10.6448 21.6403 11.4148 20.2203C12.0248 19.1003 12.6648 17.9403 12.4148 17.2203C12.2335 16.8096 12.1551 16.3609 12.1865 15.913C12.2179 15.4652 12.358 15.0317 12.5948 14.6503C12.8761 14.2374 13.2492 13.8951 13.6848 13.6503C13.4698 13.5128 13.2893 13.3276 13.1575 13.1091C13.0257 12.8906 12.9461 12.6446 12.9248 12.3903C12.9248 11.0203 14.6048 10.1203 18.9248 9.19031C21.8348 8.57031 24.0648 9.04031 25.5448 10.6003C28.7648 13.9703 26.9148 21.1903 26.8348 21.5003C26.7919 21.6601 26.7102 21.8068 26.5967 21.9272C26.4833 22.0476 26.3417 22.138 26.1848 22.1903C26.0286 22.2422 25.8619 22.2548 25.6997 22.2269C25.5375 22.199 25.3846 22.1315 25.2548 22.0303C22.0248 19.3903 20.4148 21.0403 17.9648 23.9203C16.7248 25.3903 15.4148 27.0303 13.6548 27.0303ZM15.2848 12.3103C15.8294 12.5393 16.3956 12.7135 16.9748 12.8303C17.2059 12.875 17.4138 12.9998 17.562 13.1827C17.7102 13.3656 17.789 13.5949 17.7848 13.8303C17.7679 14.0748 17.6618 14.3046 17.4867 14.476C17.3115 14.6475 17.0796 14.7486 16.8348 14.7603C16.0048 14.7603 14.5948 15.1303 14.2348 15.6903C14.1848 15.7603 14.0548 15.9503 14.2348 16.4403C14.8548 18.0403 13.9548 19.6803 13.1648 21.1303C12.5948 22.1803 11.9948 23.2703 12.1648 23.9403C12.3417 24.3411 12.6683 24.6569 13.0748 24.8203C13.9748 25.2903 14.7748 24.5003 16.3748 22.5903C18.2448 20.3603 20.9648 17.1103 25.1848 19.4803C25.5548 17.1903 25.7148 13.5803 24.0848 11.8803C23.0848 10.8803 21.5148 10.5803 19.3348 11.0403C17.9386 11.2992 16.5788 11.7256 15.2848 12.3103Z" fill="#AD485B"/>
<path d="M36.9848 21.3303C36.7524 21.3239 36.5281 21.2433 36.3448 21.1003C36.2389 21.003 36.1509 20.888 36.0848 20.7603C35.9648 20.6703 35.7348 20.5203 35.5548 20.4103C34.2548 19.5803 31.5548 17.8503 32.5548 14.8003C33.3056 12.5966 34.4434 10.5445 35.9148 8.74032C38.4948 5.68032 40.8048 5.63032 42.2848 6.13032C42.9448 6.35032 44.6948 6.93031 44.6548 8.28031C44.6503 8.49343 44.5955 8.70247 44.4948 8.89032C47.0248 9.46032 50.3948 10.7503 50.5748 13.5303C50.6501 14.395 50.7838 15.2536 50.9748 16.1003C51.3348 17.9203 51.6148 19.3603 50.5548 19.9803C49.4948 20.6003 48.3248 19.7903 46.5548 18.2603C45.0248 16.9503 42.7148 18.2003 40.0848 19.8503C39.2041 20.4917 38.2245 20.9849 37.1848 21.3103L36.9848 21.3303ZM40.9048 7.90032C39.5648 7.90032 38.3148 9.01031 37.4548 10.0303C36.1461 11.6407 35.1307 13.4685 34.4548 15.4303C33.9648 16.8903 35.1448 17.7803 36.6148 18.7203C36.8548 18.8703 37.0848 19.0203 37.2748 19.1603C37.8689 18.8581 38.4463 18.5243 39.0048 18.1603C41.4148 16.6603 45.0648 14.3803 47.8348 16.7503C48.2844 17.1497 48.7586 17.5204 49.2548 17.8603C49.1948 17.4403 49.0948 16.9203 49.0048 16.5003C48.8034 15.5634 48.6598 14.6149 48.5748 13.6603C48.4548 11.6603 43.8748 10.6603 41.6748 10.4703C41.4095 10.4942 41.1457 10.4117 40.9413 10.2411C40.7369 10.0704 40.6086 9.82553 40.5848 9.56032C40.5609 9.2951 40.6434 9.03126 40.814 8.82685C40.9847 8.62243 41.2295 8.49418 41.4948 8.47032C41.7469 8.40022 41.9942 8.31336 42.2348 8.21031C42.0848 8.15031 41.8948 8.07032 41.6548 7.99032C41.4107 7.92265 41.1579 7.89231 40.9048 7.90032Z" fill="#AD485B"/>
<path d="M17.8748 25.7503C17.8748 25.7503 18.3048 20.1103 21.7848 22.0603C25.2648 24.0103 24.7848 26.1903 23.3048 26.8403C21.8248 27.4903 18.0948 29.0103 17.8748 25.7503Z" fill="#AD485B"/>
<path d="M42.1948 19.6703C42.1948 19.6703 38.7248 22.5003 42.8548 23.3703C46.9848 24.2403 47.8548 20.7603 46.5448 19.2403C45.2348 17.7203 42.6348 17.7203 42.1948 19.6703Z" fill="#AD485B"/>
<path d="M8.10476 24.8403C7.87796 24.834 7.65518 24.779 7.45156 24.6789C7.24795 24.5788 7.06827 24.436 6.92476 24.2603C6.84476 24.1703 -1.16524 15.0503 0.14476 12.6403C0.298177 12.3651 0.538199 12.1482 0.827532 12.0235C1.11686 11.8987 1.43931 11.873 1.74476 11.9503C2.65476 12.1103 5.28476 9.86031 7.20476 8.22031C9.63476 6.14031 12.1548 3.9903 14.4748 3.1003C17.1648 2.1003 19.8948 3.66031 21.7948 7.33031C22.4848 8.68031 23.4848 11.0603 22.3348 11.8203C22.1143 11.965 21.8456 12.0168 21.5871 11.9644C21.3287 11.9119 21.1014 11.7595 20.9548 11.5403C20.8618 11.402 20.8049 11.2426 20.7891 11.0767C20.7734 10.9108 20.7994 10.7436 20.8648 10.5903C20.418 8.56377 19.3226 6.73816 17.7448 5.39031C17.3951 5.09693 16.9734 4.90237 16.5233 4.82676C16.0732 4.75116 15.6111 4.79727 15.1848 4.96031C13.1848 5.72031 10.7048 7.85031 8.50476 9.73031C5.92476 11.9403 3.81476 13.7303 2.10476 13.9303C2.78476 15.6503 5.77476 19.9303 8.00476 22.4503C8.5167 20.7386 8.91424 18.9948 9.19476 17.2303C10.1948 11.8203 11.1948 6.72031 13.9648 6.72031C15.1305 6.66631 16.2919 6.89769 17.3479 7.39435C18.404 7.89101 19.3229 8.63795 20.0248 9.57031C20.095 9.68127 20.1428 9.80499 20.1652 9.9344C20.1877 10.0638 20.1844 10.1964 20.1556 10.3245C20.1268 10.4527 20.0731 10.5739 19.9974 10.6813C19.9218 10.7886 19.8257 10.8801 19.7148 10.9503C19.6038 11.0206 19.4801 11.0683 19.3507 11.0908C19.2213 11.1132 19.0887 11.1099 18.9605 11.0812C18.8324 11.0524 18.7112 10.9986 18.6038 10.923C18.4964 10.8473 18.405 10.7513 18.3348 10.6403C17.8115 9.99585 17.1421 9.48548 16.3821 9.15156C15.6221 8.81764 14.7934 8.6698 13.9648 8.72031C12.8348 8.72031 11.6148 15.1703 11.1548 17.6003C10.2748 22.3003 9.82476 24.3903 8.48476 24.7703C8.36221 24.8122 8.23418 24.8357 8.10476 24.8403Z" fill="#AD485B"/>
<path d="M50.1348 20.0203C47.4848 20.0203 46.4148 16.0203 45.2748 11.7803C44.7848 9.92031 43.7448 6.05031 42.9948 5.90031C42.7311 5.87986 42.4863 5.7558 42.3138 5.55527C42.1414 5.35474 42.0555 5.09407 42.0748 4.83031C42.0952 4.56664 42.2193 4.32181 42.4198 4.14939C42.6203 3.97697 42.881 3.89101 43.1448 3.91031C45.2848 4.06031 46.1448 7.24031 47.2148 11.2603C47.8948 13.8203 49.0648 18.1003 50.2148 18.0203C50.7548 18.0203 51.7248 17.2503 52.8148 15.2803C54.9448 11.4203 55.8148 6.40031 55.3948 5.56031C54.9748 5.15031 52.2548 4.82031 50.2648 4.56031C46.9048 4.15031 43.0948 3.68031 40.4748 2.30031C40.1448 2.13031 39.5648 1.88031 39.2648 2.09031C38.4248 2.69031 38.3748 5.79031 38.6648 7.79031C38.7032 8.05553 38.6347 8.32516 38.4744 8.53989C38.3141 8.75462 38.075 8.89686 37.8098 8.93531C37.5445 8.97377 37.2749 8.90529 37.0602 8.74495C36.8455 8.58461 36.7032 8.34553 36.6648 8.08031C36.5248 7.08031 35.9048 2.01031 38.0848 0.460314C38.5814 0.148037 39.1587 -0.0117667 39.7453 0.000674946C40.3318 0.0131166 40.9018 0.197257 41.3848 0.530313C43.6748 1.74031 47.4548 2.20031 50.4948 2.58031C53.9348 3.00031 55.9248 3.29031 56.8248 4.19031C58.6348 6.00031 56.0248 12.9503 55.9148 13.2403C54.9748 15.7003 53.0048 19.8503 50.3148 20.0103L50.1348 20.0203Z" fill="#AD485B"/>
<path d="M15.2648 34.7903C15.0839 34.7898 14.9065 34.7403 14.7515 34.6469C14.5965 34.5536 14.4698 34.42 14.3848 34.2603C12.4848 30.7003 13.5948 26.1403 13.6448 25.9503C13.7165 25.702 13.8817 25.491 14.1056 25.3618C14.3295 25.2326 14.5947 25.1951 14.8456 25.2572C15.0966 25.3193 15.3137 25.4761 15.4515 25.6948C15.5893 25.9136 15.6371 26.1772 15.5848 26.4303C15.5848 26.4303 14.5848 30.4303 16.1548 33.3203C16.2362 33.4732 16.2765 33.6447 16.2717 33.8179C16.267 33.9911 16.2173 34.16 16.1275 34.3083C16.0378 34.4565 15.9111 34.5788 15.7599 34.6633C15.6086 34.7478 15.438 34.7916 15.2648 34.7903Z" fill="#AD485B"/>
<path d="M50.2348 29.1403C50.0976 29.1399 49.9621 29.1112 49.8365 29.0562C49.7109 29.0011 49.598 28.9208 49.5048 28.8203C49.3185 28.633 49.214 28.3795 49.214 28.1153C49.214 27.8511 49.3185 27.5977 49.5048 27.4103C51.3848 25.6703 49.9748 21.0503 49.2648 19.4103C49.2122 19.2895 49.184 19.1595 49.1817 19.0278C49.1794 18.8961 49.2031 18.7652 49.2514 18.6426C49.2997 18.52 49.3716 18.4082 49.4631 18.3134C49.5547 18.2187 49.6639 18.1428 49.7848 18.0903C49.9056 18.0378 50.0356 18.0096 50.1673 18.0073C50.299 18.005 50.4299 18.0286 50.5525 18.0769C50.675 18.1252 50.7869 18.1972 50.8817 18.2887C50.9764 18.3802 51.0522 18.4895 51.1048 18.6103C51.4248 19.3503 54.1048 25.8703 50.8648 28.8703C50.6931 29.0317 50.47 29.1273 50.2348 29.1403Z" fill="#AD485B"/>
<path d="M28.5148 37.0503C28.3148 36.4303 34.1648 30.1003 40.4648 34.6603C40.4648 34.6603 40.8948 43.7803 35.4648 42.9103C30.0348 42.0403 29.8148 40.9603 28.5148 37.0503Z" fill="#AD485B"/>
<path d="M16.7948 54.2003C16.4387 54.1989 16.0836 54.162 15.7348 54.0903C15.0077 53.9181 14.3237 53.5985 13.7251 53.1513C13.1265 52.7041 12.626 52.1387 12.2548 51.4903C10.0448 48.0503 11.5448 44.9003 13.3048 42.7303C12.9484 42.8786 12.558 42.9253 12.1768 42.8653C11.7955 42.8053 11.4383 42.6409 11.1448 42.3903C10.9214 42.0877 10.8009 41.7214 10.8009 41.3453C10.8009 40.9692 10.9214 40.603 11.1448 40.3003C12.3748 37.8503 18.2448 32.3003 22.3648 29.7003C24.8526 28.0982 27.7934 27.3472 30.7448 27.5603C33.0853 26.3375 35.5078 25.2783 37.9948 24.3903C41.2548 23.3903 47.9948 25.8903 54.7148 30.6103C56.9248 32.1503 57.9448 33.1303 57.3948 34.1703C57.2048 34.5403 56.9548 35.0303 55.3948 34.8003C56.4311 36.336 57.1338 38.0719 57.4576 39.896C57.7814 41.7201 57.7192 43.5918 57.2748 45.3903C56.6548 47.4603 54.9848 47.0903 53.3748 46.7303C51.3623 46.2456 49.2937 46.0337 47.2248 46.1003C41.1448 46.3103 32.1348 47.3403 28.2248 48.6603C26.9398 49.222 25.7222 49.9264 24.5948 50.7603C22.1148 52.3903 19.4148 54.2003 16.7948 54.2003ZM16.9348 39.3903C17.111 39.3896 17.2842 39.4355 17.437 39.5233C17.5898 39.6111 17.7167 39.7377 17.8048 39.8903C18.2648 40.6503 17.6748 41.1803 17.0448 41.7303C14.4748 44.0103 11.8048 47.0503 13.9348 50.3703C14.1658 50.793 14.4812 51.1637 14.8613 51.4596C15.2415 51.7554 15.6783 51.9701 16.1448 52.0903C18.2348 52.5303 21.0048 50.6703 23.4448 49.0903C24.713 48.1493 26.0895 47.3637 27.5448 46.7503C31.7248 45.3903 40.8048 44.3003 47.1648 44.0903C49.3983 44.0101 51.6323 44.2355 53.8048 44.7603C54.2904 44.8981 54.7904 44.9786 55.2948 45.0003C55.2948 45.0003 55.2948 44.9203 55.3548 44.8003C55.7848 43.3703 56.3548 36.8703 51.2148 33.5503C51.0076 33.4164 50.8572 33.2105 50.7926 32.9724C50.728 32.7342 50.7537 32.4806 50.8648 32.2603C50.9748 32.0427 51.1605 31.8728 51.387 31.7826C51.6136 31.6924 51.8652 31.688 52.0948 31.7703C52.6248 31.9603 53.1648 32.1403 53.6748 32.2903L53.5748 32.2203C46.7648 27.4603 40.7748 25.6003 38.5748 26.2803C36.1205 27.1811 33.7286 28.2434 31.4148 29.4603C31.2242 29.5594 31.0068 29.5944 30.7948 29.5603C28.1994 29.3286 25.6012 29.9728 23.4148 31.3903C19.6748 33.7503 14.7248 38.4503 13.2148 40.6903C13.8448 40.5003 14.6448 40.2003 15.2148 39.9803L16.2148 39.5903C16.4409 39.4813 16.6848 39.4136 16.9348 39.3903Z" fill="#AD485B"/>
<path d="M23.3048 48.2603C23.1963 48.2583 23.0886 48.2415 22.9848 48.2103C22.8598 48.1686 22.7443 48.1025 22.645 48.016C22.5456 47.9295 22.4644 47.8243 22.4058 47.7062C22.3473 47.5882 22.3126 47.4598 22.3039 47.3284C22.2951 47.1969 22.3124 47.0651 22.3548 46.9403C23.4348 43.7003 25.7048 43.2403 26.7548 43.4503C26.9757 43.5305 27.1614 43.686 27.2791 43.8895C27.3969 44.0929 27.4392 44.3314 27.3986 44.5629C27.358 44.7945 27.2371 45.0043 27.0572 45.1556C26.8773 45.307 26.6498 45.39 26.4148 45.3903C26.2648 45.3903 25.0348 45.2803 24.2848 47.5403C24.2233 47.7514 24.0939 47.9362 23.9168 48.0664C23.7396 48.1965 23.5245 48.2647 23.3048 48.2603Z" fill="#AD485B"/>
<path d="M27.8648 48.6903C27.6144 48.6913 27.3728 48.5984 27.1877 48.4299C27.0025 48.2614 26.8873 48.0296 26.8648 47.7803C26.5948 44.7803 29.8148 42.7803 29.9448 42.7103C30.0569 42.6409 30.1817 42.5944 30.3119 42.5735C30.4421 42.5525 30.5752 42.5575 30.7034 42.5882C30.8317 42.6188 30.9526 42.6746 31.0593 42.7522C31.1659 42.8298 31.2561 42.9277 31.3248 43.0403C31.4555 43.2642 31.4942 43.5301 31.4326 43.782C31.371 44.0339 31.214 44.252 30.9948 44.3903C30.3548 44.7903 28.7248 46.1403 28.8648 47.5803C28.8771 47.7117 28.8633 47.8443 28.8242 47.9704C28.7851 48.0965 28.7214 48.2135 28.6368 48.3149C28.5522 48.4162 28.4484 48.4998 28.3313 48.5608C28.2143 48.6218 28.0863 48.659 27.9548 48.6703L27.8648 48.6903Z" fill="#AD485B"/>
<path d="M47.1948 46.0903C47.0533 46.0897 46.9135 46.059 46.7848 46.0003C46.5438 45.8912 46.3558 45.691 46.2621 45.4436C46.1684 45.1962 46.1765 44.9217 46.2848 44.6803C46.7048 43.6803 44.9748 42.3303 44.4848 42.0203C44.2607 41.8771 44.1026 41.6507 44.0454 41.391C43.9882 41.1312 44.0365 40.8594 44.1798 40.6353C44.323 40.4112 44.5494 40.2532 44.8091 40.196C45.0688 40.1388 45.3407 40.1871 45.5648 40.3303C46.9648 41.2303 49.0748 43.3303 48.1048 45.4903C48.0274 45.6676 47.9002 45.8187 47.7387 45.9252C47.5772 46.0317 47.3882 46.0891 47.1948 46.0903Z" fill="#AD485B"/>
<path d="M51.5348 44.5703C51.3997 44.5693 51.2666 44.5386 51.1448 44.4803C50.9027 44.3748 50.7122 44.1779 50.6147 43.9325C50.5173 43.6871 50.5209 43.4131 50.6248 43.1703C50.6248 42.6803 49.1148 41.0203 47.4748 39.8103C47.3598 39.7366 47.2612 39.6401 47.1849 39.5268C47.1087 39.4135 47.0564 39.2858 47.0314 39.1515C47.0065 39.0173 47.0092 38.8793 47.0396 38.7462C47.0699 38.613 47.1273 38.4875 47.208 38.3774C47.2887 38.2672 47.3912 38.1748 47.509 38.1057C47.6268 38.0367 47.7575 37.9925 47.8931 37.9759C48.0286 37.9593 48.1661 37.9707 48.2971 38.0093C48.4281 38.0479 48.5498 38.1129 48.6548 38.2003C50.0948 39.2003 53.3248 41.9303 52.4548 43.9603C52.3782 44.1411 52.2502 44.2953 52.0866 44.4038C51.923 44.5122 51.7311 44.5702 51.5348 44.5703Z" fill="#AD485B"/>
<path d="M38.3248 59.6003C35.8448 59.6003 33.3248 58.6003 32.4748 57.3903C31.6248 56.1803 31.4748 56.1003 30.6348 55.9403C30.2748 55.8703 29.7748 55.7803 29.1248 55.6103C28.8171 55.5252 28.533 55.3711 28.2939 55.1597C28.0547 54.9483 27.867 54.6852 27.7448 54.3903C26.8348 52.3003 28.9348 48.0403 29.3648 47.2003C29.4868 46.9643 29.6975 46.7864 29.9507 46.7057C30.2039 46.6251 30.4787 46.6483 30.7148 46.7703C30.9508 46.8923 31.1287 47.1031 31.2094 47.3563C31.29 47.6094 31.2668 47.8843 31.1448 48.1203C29.8448 50.6303 29.2048 53.2903 29.6048 53.6303C30.0624 53.7579 30.5263 53.8613 30.9948 53.9403C32.3948 54.1903 32.8848 54.4503 34.1148 56.2103C34.7248 57.0803 37.9848 58.1103 40.3448 57.2103C41.9848 56.6103 42.6948 55.2803 42.5048 53.1403C42.491 52.9693 42.5215 52.7975 42.5933 52.6417C42.6651 52.4858 42.7758 52.351 42.9148 52.2503C43.5929 51.6796 44.0172 50.8633 44.0948 49.9803C44.1848 48.6803 43.4548 47.2503 41.9248 45.7203C41.7385 45.533 41.634 45.2795 41.634 45.0153C41.634 44.7511 41.7385 44.4977 41.9248 44.3103C42.0177 44.2166 42.1283 44.1422 42.2502 44.0914C42.372 44.0407 42.5027 44.0145 42.6348 44.0145C42.7668 44.0145 42.8975 44.0407 43.0193 44.0914C43.1412 44.1422 43.2518 44.2166 43.3448 44.3103C45.3448 46.3103 46.2348 48.2403 46.0948 50.1503C45.9831 51.4065 45.4305 52.5826 44.5348 53.4703C44.6648 57.1803 42.4148 58.5803 41.0248 59.0903C40.1604 59.413 39.2473 59.5855 38.3248 59.6003Z" fill="#AD485B"/>
<path d="M37.4148 54.5303C37.2127 54.5262 37.0166 54.4609 36.8524 54.3431C36.6881 54.2252 36.5634 54.0604 36.4948 53.8703C36.1993 51.4711 36.0358 49.0575 36.0048 46.6403C35.9955 46.3751 36.0919 46.1171 36.2729 45.923C36.4539 45.7289 36.7045 45.6146 36.9698 45.6053C37.235 45.596 37.493 45.6925 37.6871 45.8735C37.8812 46.0544 37.9955 46.3051 38.0048 46.5703C38.1048 49.4803 38.2848 52.7803 38.3948 53.2703C38.463 53.5222 38.4301 53.7908 38.303 54.0187C38.176 54.2466 37.9649 54.4159 37.7148 54.4903C37.6174 54.5188 37.5162 54.5323 37.4148 54.5303Z" fill="#AD485B"/>
<path d="M35.8548 63.7203C35.3548 63.7203 34.8548 63.7203 34.3248 63.7203C25.4748 63.2503 21.8448 51.3503 21.6948 50.8403C21.6524 50.709 21.6376 50.5705 21.6514 50.4332C21.6652 50.296 21.7072 50.1631 21.7748 50.0429C21.8424 49.9226 21.9342 49.8177 22.0443 49.7347C22.1545 49.6516 22.2806 49.5923 22.4148 49.5603C22.5408 49.5218 22.6732 49.5087 22.8044 49.5215C22.9356 49.5344 23.0629 49.5731 23.1791 49.6354C23.2952 49.6976 23.398 49.7823 23.4813 49.8844C23.5647 49.9865 23.627 50.104 23.6648 50.2303C23.6448 50.3903 26.9848 61.2903 34.4148 61.6803C41.8448 62.0703 46.7248 59.2603 47.3048 56.3903C47.9548 53.1403 49.8448 45.9903 49.9248 45.6903C49.9928 45.4347 50.1594 45.2164 50.3881 45.0833C50.6168 44.9502 50.8888 44.9132 51.1448 44.9803C51.4004 45.0484 51.6187 45.215 51.7518 45.4437C51.8848 45.6723 51.9219 45.9444 51.8548 46.2003C51.8548 46.2703 49.8548 53.5903 49.2648 56.7803C48.5548 60.3903 43.7548 63.7203 35.8548 63.7203Z" fill="#AD485B"/>
<path d="M19.8248 8.51031C19.5721 8.50944 19.3292 8.41298 19.1448 8.24031C19.051 8.14735 18.9766 8.03675 18.9259 7.91489C18.8751 7.79303 18.849 7.66232 18.849 7.53031C18.849 7.3983 18.8751 7.2676 18.9259 7.14574C18.9766 7.02388 19.051 6.91328 19.1448 6.82031C19.2248 6.74031 27.4048 -1.71969 37.7448 4.26031C37.9735 4.39223 38.1408 4.60926 38.2101 4.86405C38.2794 5.11884 38.2451 5.3907 38.1148 5.62031C38.0494 5.7349 37.9621 5.83543 37.8577 5.91612C37.7534 5.9968 37.6341 6.05604 37.5068 6.09043C37.3794 6.12483 37.2465 6.13369 37.1158 6.1165C36.985 6.09932 36.8589 6.05643 36.7448 5.99031C27.7948 0.820314 20.8848 7.90031 20.5948 8.20031C20.4961 8.30411 20.3763 8.3855 20.2434 8.43898C20.1106 8.49246 19.9678 8.51679 19.8248 8.51031Z" fill="#AD485B"/>
</g>
<defs>
<clipPath id="clip0_5_74">
<rect width="58" height="64" fill="white"/>
</clipPath>
</defs>
</svg>
