<svg width="81" height="62" viewBox="0 0 81 62" fill="none" xmlns="http://www.w3.org/2000/svg">
<path d="M13.5301 14.2254C13.1183 13.9863 12.5671 14.1687 12.3006 14.6326C12.0341 15.0966 12.1522 15.6659 12.5641 15.905C12.9759 16.1441 13.5271 15.9617 13.7936 15.4978C14.0601 15.0338 13.942 14.4645 13.5301 14.2254Z" fill="#AD485B"/>
<path d="M29.1945 12.9885C29.4832 12.6086 29.3741 12.0372 28.9491 11.712C28.5252 11.3869 27.9467 11.4314 27.658 11.8113C27.3693 12.1912 27.4783 12.7626 27.9033 13.0877C28.3283 13.4129 28.9057 13.3684 29.1945 12.9885Z" fill="#AD485B"/>
<path d="M21.2437 20.3532C21.2851 20.3532 21.3275 20.3492 21.3679 20.339L23.8159 19.7596C23.8896 19.7413 23.9602 19.7089 24.0198 19.6633L26.6061 17.694C26.806 17.541 26.8767 17.2695 26.7737 17.0396C26.6717 16.8076 26.4224 16.681 26.1771 16.7245L21.8635 17.5451L17.5923 18.704C17.346 18.7698 17.1795 19.0008 17.1926 19.2571C17.2057 19.5124 17.3945 19.7251 17.6469 19.7667L21.1569 20.3461C21.1851 20.3512 21.2144 20.3532 21.2437 20.3532ZM22.1068 18.6057L24.1127 18.2248L23.4555 18.7253L21.2255 19.2531L20.2897 19.0991L22.1068 18.6057Z" fill="#AD485B"/>
<path d="M80.3274 21.421C79.7237 21.1697 79.2654 20.9772 78.901 20.8851C77.9803 20.4971 77.0546 20.0341 76.0926 19.5539C73.6456 18.3312 71.1158 17.068 68.2952 16.835C63.8565 16.0924 59.3551 16.0924 54.8922 16.839L53.4082 17.1166C47.966 18.1316 41.8424 19.2845 36.8101 21.0765L36.4396 20.6743C36.4951 20.5275 36.5476 20.3806 36.5981 20.2317H37.9952C38.1699 20.2317 38.3324 20.1486 38.4354 20.0068L39.1037 19.0788H40.0274C40.2787 19.0788 40.4978 18.9056 40.5553 18.6604L40.7835 17.6981L42.3674 16.6323L44.9971 15.0672L45.621 15.0216C45.7845 15.0095 45.9349 14.9234 46.0278 14.7886L46.7778 13.6996C46.8849 13.5446 46.904 13.343 46.8283 13.1708C46.7516 12.9976 46.5921 12.876 46.4043 12.8517L42.1897 12.2763C41.2811 12.1466 40.3766 12.3158 39.569 12.7504L37.5541 13.8323L37.5763 13.4281C37.5904 13.187 37.5228 12.9479 37.3865 12.7494L36.9736 12.1477L38.7796 9.98584C38.8351 9.91898 38.8745 9.83996 38.8927 9.75487L39.5398 6.87279C39.5549 6.80492 39.5579 6.73502 39.5458 6.66613L38.8755 2.50358C38.8331 2.24019 38.606 2.0467 38.3405 2.0467H36.909C36.7122 2.0467 36.5295 2.15307 36.4336 2.32731C36.3457 2.48636 36.3538 2.6758 36.4356 2.83585L35.6461 3.59765C35.5694 3.67161 35.5159 3.76784 35.4937 3.87219L35.1656 5.35121L34.4247 5.93776C34.3298 6.01171 34.2631 6.11605 34.2349 6.23357L33.9926 7.20709L33.3314 7.82707L32.3199 7.31954L30.1111 2.99895C30.0798 2.93716 30.0374 2.88347 29.9859 2.83788L27.0301 0.242489C26.9423 0.165499 26.8333 0.1189 26.7172 0.108769L25.424 0.00138874C25.2221 -0.0117807 25.0535 0.069261 24.9415 0.221216C24.8304 0.373171 24.8042 0.572738 24.8748 0.749006L25.0444 1.17245L23.7745 2.16219C23.5605 2.32934 23.5019 2.63021 23.6382 2.86624L24.2025 3.83977L23.6645 4.60461C23.6382 4.64209 23.617 4.68363 23.6009 4.72617L23.3687 5.34311C21.3366 5.19318 19.3125 5.36236 17.339 5.879C14.6769 6.57394 12.2198 7.85948 10.1211 9.61912C9.63247 8.62635 8.84002 7.80377 7.83658 7.31143L7.61147 7.20203C7.51556 7.15441 7.40755 7.13922 7.30256 7.15137L5.13215 7.43705C4.98678 7.45731 4.85655 7.5343 4.76873 7.65181C4.6809 7.76932 4.64456 7.91824 4.66677 8.0631L4.79094 8.83807L4.66071 11.2167C4.65163 11.3869 4.7233 11.552 4.85151 11.6614L5.66819 12.3553L6.6373 13.6348C6.47578 13.9194 6.32739 14.2112 6.1901 14.507L2.12789 11.5378C1.96435 11.4183 1.75034 11.4 1.56964 11.4892L0.439005 12.0453C0.301713 12.1122 0.199754 12.2348 0.157355 12.3806C0.113947 12.5275 0.135146 12.6846 0.213887 12.8152L0.569229 13.4068L0.374397 15.1006L0.480393 16.8937C0.490488 17.0457 0.562162 17.1875 0.680273 17.2837L2.4479 18.7273L3.49575 20.0057L1.26881 20.6328C1.01139 20.7047 0.844821 20.955 0.876115 21.2214L0.991198 22.1949C1.02047 22.4451 1.21833 22.6417 1.46869 22.672L1.84826 22.7166L3.13839 24.0133L4.20947 24.9402C4.31244 25.0284 4.43862 25.0719 4.56481 25.0719C4.71119 25.0719 4.85655 25.0132 4.96356 24.8977L5.69746 24.1014L7.07946 23.835C8.76936 25.7932 11.0175 27.251 13.5009 27.9682L13.7229 30.206L10.2947 32.2786C7.7538 33.8154 5.92965 36.2426 5.15839 39.1146L3.734 44.4178L0.255276 48.5591C-0.0324296 48.9025 -0.0818956 49.3877 0.132117 49.7828C0.34613 50.1769 0.782233 50.3957 1.22237 50.342L2.66393 50.1566L2.47919 51.2406C2.40045 51.7005 2.62355 52.1594 3.0324 52.3813C3.44225 52.6041 3.94498 52.5413 4.2872 52.2222L5.84788 50.7705L7.27934 52.1959C7.48629 52.4025 7.76289 52.5119 8.04454 52.5119C8.16568 52.5119 8.28883 52.4907 8.40695 52.4491C8.80065 52.3083 9.07826 51.9558 9.12369 51.5394L9.4225 48.7556L10.007 48.8974C10.3967 48.9937 10.8116 48.861 11.0781 48.5571C11.3436 48.2531 11.4193 47.8256 11.2749 47.4478L10.1958 44.6326L12.3833 39.1308L14.8193 37.7561C15.9408 39.0183 16.4456 39.8602 16.9331 40.6757C17.5863 41.7677 18.2031 42.801 20.0757 44.4695C21.7313 45.7986 23.6705 46.7984 25.6602 47.3647L24.3358 49.4536C23.7725 50.342 23.3818 51.3156 23.1759 52.3499L22.6519 54.9685L19.8314 58.7391C19.5831 59.0713 19.5447 59.5171 19.7325 59.8878C19.9182 60.2525 20.2917 60.4825 20.6996 60.4825C20.7046 60.4825 20.7107 60.4825 20.7167 60.4825L24.1318 60.4308L25.11 61.608C25.318 61.8582 25.6249 62 25.9439 62C26.0004 62 26.057 61.9959 26.1135 61.9858C26.491 61.926 26.809 61.6708 26.9514 61.3152L27.6217 59.6366L29.4044 59.6022C29.7436 59.5951 30.0586 59.4309 30.2595 59.1574C30.4604 58.8839 30.5209 58.5314 30.425 58.2052L29.4448 54.8753C29.1995 54.0426 29.359 53.1279 29.8728 52.4289L32.8539 48.3697C36.2892 48.2066 40.0879 46.9484 42.4118 46.1714C42.5329 46.1308 42.647 46.069 42.7469 45.989C43.1336 45.678 43.6262 45.3194 44.1178 44.9588C44.5509 44.6427 44.9678 44.3337 45.3373 44.047L47.4068 44.2598L56.577 49.255C56.7395 49.3432 56.9172 49.3867 57.0949 49.3867C57.3382 49.3867 57.5794 49.3047 57.7773 49.1446C58.1185 48.8691 58.2608 48.4122 58.1357 47.9898L58.0085 47.5562L58.9483 47.7132C59.3985 47.7851 59.8437 47.5744 60.0689 47.1793C60.294 46.7843 60.2506 46.2879 59.9578 45.9384L59.5379 45.4359L61.147 44.9922C61.6225 44.8605 61.9506 44.4239 61.9445 43.9285C61.9384 43.4342 61.6013 43.0046 61.1228 42.8851L56.1884 41.6461C56.1561 41.638 56.1227 41.631 56.0884 41.6259L53.2204 41.1852L50.3545 39.8703C55.2798 35.9711 59.6883 32.7183 64.4854 29.8555C65.7271 29.738 66.9738 29.7775 68.2902 29.819C70.186 29.8788 72.1475 29.9426 74.1422 29.4979C74.3502 29.4513 74.541 29.3449 74.6884 29.1899C75.4879 28.3572 76.3459 27.5488 77.1758 26.7657C78.477 25.5389 79.7065 24.381 80.7453 23.1239C80.8049 23.054 80.8533 22.976 80.8927 22.8949L80.8937 22.8929L80.8947 22.8919L80.8957 22.8898L80.8967 22.8878C80.922 22.8321 80.9432 22.7754 80.9593 22.7166L80.9604 22.7146V22.7126L80.9614 22.7116V22.7095L80.9624 22.7075C81.0078 22.5383 81.0128 22.358 80.9735 22.1807C80.8937 21.8403 80.6514 21.5547 80.3274 21.421ZM41.7889 15.7125L40.0021 16.913C39.888 16.9889 39.8073 17.1054 39.775 17.2392L39.5973 17.9908H38.825C38.6504 17.9908 38.4879 18.0739 38.3849 18.2157L37.7166 19.1437H36.9292C37.0231 18.7921 37.1039 18.4366 37.1725 18.079L40.627 15.9141C41.2115 15.5484 41.8767 15.3265 42.5582 15.2536L41.7889 15.7125ZM40.0829 13.7077C40.6866 13.3835 41.3589 13.261 42.0443 13.3521L45.3827 13.809L45.2828 13.9539L42.6349 14.1453C41.7243 14.2102 40.8319 14.5019 40.0536 14.9882L37.3734 16.6678C37.3916 16.4743 37.4188 16.2829 37.4299 16.0883L37.4844 15.1027L40.0829 13.7077ZM38.4596 6.73603L37.864 9.38612L36.3356 11.2157L35.6209 10.1743L36.5547 9.37701C36.588 9.34864 36.6183 9.31521 36.6445 9.27874C37.4461 8.15428 37.865 6.82821 37.8569 5.44543L37.8438 3.2127C37.8438 3.18636 37.8418 3.16002 37.8378 3.13368L38.4596 6.73603ZM34.8517 7.89291C34.9274 7.822 34.9819 7.7288 35.0071 7.62649L35.2434 6.67727L35.9904 6.08566C36.0883 6.00867 36.1569 5.89825 36.1832 5.77567L36.5173 4.26828L36.7626 4.03123L36.7717 5.4515C36.7778 6.58205 36.4416 7.66701 35.7976 8.59292L35.0011 9.27266L34.5226 8.5757C34.4701 8.49972 34.4085 8.43083 34.3388 8.37106L34.8517 7.89291ZM26.4496 1.17955L29.1924 3.58854L30.7299 6.5942C29.5205 6.12314 28.2566 5.8162 26.9554 5.68349L26.6626 5.65411C27.1058 4.63703 27.1381 3.47001 26.7121 2.4043L26.2124 1.15928L26.4496 1.17955ZM25.317 3.59259L24.8163 2.72746L25.4674 2.22094L25.7036 2.81053C26.065 3.71314 25.9802 4.71402 25.5038 5.53559L24.4943 5.43226L24.5912 5.17393L25.2908 4.18116C25.4139 4.00692 25.423 3.77696 25.317 3.59259ZM7.28338 8.25051L7.36111 8.28901C8.23735 8.71853 8.90665 9.47426 9.26805 10.3769C9.05908 10.5754 8.8491 10.7709 8.64822 10.9786L8.45742 11.1782C8.42007 11.2177 8.38676 11.2602 8.34941 11.2997L8.13135 9.61102C8.1041 9.40031 7.95671 9.22404 7.75481 9.16123L5.84687 8.56658L5.82668 8.44198L7.28338 8.25051ZM6.49597 11.6462C6.47275 11.6148 6.44449 11.5854 6.41521 11.5601L5.76005 11.0029L5.83072 9.70219L7.09864 10.0983L7.4025 12.4465C7.35303 12.5134 7.30054 12.5772 7.25309 12.645L6.49597 11.6462ZM1.75236 12.6086L5.76611 15.5423C5.62478 15.9394 5.4996 16.3426 5.39966 16.7549L4.5315 16.4287C3.80062 16.1542 3.17675 15.6355 2.77397 14.9669L1.4485 12.7585L1.75236 12.6086ZM3.25146 17.9898C3.22925 17.9625 3.203 17.9361 3.17474 17.9138L1.54945 16.5857L1.45557 15.13L1.4808 14.9213L1.84624 15.5302C2.37421 16.4075 3.19392 17.0902 4.15193 17.4509L5.18565 17.8389C5.10186 18.4041 5.09479 18.9745 5.14729 19.5377L4.63951 19.6806L3.25146 17.9898ZM5.32294 20.6186C5.4148 20.9853 5.54301 21.3419 5.69141 21.6904L4.11659 21.8788L2.01886 21.6347L2.00877 21.5516L5.32294 20.6186ZM5.31486 23.0611C5.2018 23.0833 5.09681 23.1411 5.01908 23.2262L4.52039 23.7671L3.87734 23.211L3.58156 22.9132L4.05501 22.9679C4.07621 22.9699 4.0964 22.9709 4.1176 22.9709C4.1388 22.9709 4.16 22.9699 4.1812 22.9679L6.23249 22.7227C6.26278 22.7703 6.2971 22.8169 6.3284 22.8635L5.31486 23.0611ZM77.419 23.5119L66.2783 21.8981C66.2036 21.8869 66.1278 21.892 66.0531 21.9133L60.1022 23.5939L57.3917 24.5836L57.7622 25.6068L60.4333 24.6302L66.2349 22.9942L76.4368 24.4712C76.1885 24.7072 75.9442 24.9412 75.6888 25.1823C74.9185 25.9087 74.124 26.6563 73.3589 27.4404C71.7336 27.7544 70.0891 27.7007 68.3578 27.646C66.9486 27.6015 65.4898 27.5539 64.016 27.719C63.8646 27.7362 63.7162 27.7848 63.5839 27.8638C58.3224 30.983 53.5566 34.5387 48.1376 38.8583L46.1439 37.9435L45.2404 39.924L52.4542 43.2336C52.5461 43.2761 52.643 43.3045 52.7419 43.3197L55.7088 43.7755L56.8546 44.0622C56.7294 44.1858 56.6346 44.3398 56.581 44.513C56.5195 44.7106 56.5164 44.9182 56.5669 45.1127C56.2207 45.0783 55.8936 45.2181 55.6644 45.4754C55.5009 45.6608 55.407 45.8938 55.3929 46.1329L48.2497 42.2418C48.1235 42.1739 47.9852 42.1314 47.8429 42.1162L41.3235 41.4456L41.1045 43.6124L42.1342 43.7188C41.9262 43.8728 41.7263 44.0237 41.5446 44.1656C38.7695 45.0945 33.2971 46.8886 30.0172 45.9759L29.4418 48.0769C29.7022 48.1488 29.9829 48.1863 30.2585 48.2329L28.1254 51.1362C27.2108 52.3813 26.9261 54.0102 27.3622 55.4923L27.9376 57.4484L26.8585 57.4697C26.4224 57.4788 26.0337 57.7473 25.8712 58.1545L25.6097 58.809L25.4644 58.6337C25.2574 58.3855 24.9516 58.2416 24.6305 58.2416C24.6255 58.2416 24.6194 58.2416 24.6134 58.2416L22.8932 58.267L24.5326 56.0758C24.6295 55.9451 24.6962 55.7962 24.7274 55.6351L25.2988 52.7753C25.4533 52.0054 25.743 51.2811 26.163 50.6206L28.3162 47.2239C28.511 46.9149 28.5403 46.529 28.3909 46.1947C28.2435 45.8614 27.9376 45.6243 27.5773 45.5646C25.4129 45.2049 23.2294 44.2101 21.4698 42.8C19.8889 41.3888 19.4034 40.5784 18.7896 39.5502C18.3192 38.761 17.7882 37.8827 16.7454 36.661L16.9705 36.5344C17.0482 36.4898 17.1199 36.4361 17.1855 36.3743L18.4181 35.2002L16.9241 33.6209L15.7894 34.7008L10.9801 37.4157C10.7641 37.5383 10.5965 37.7308 10.5037 37.9618L8.01728 44.2172C7.91633 44.4725 7.91431 44.7551 8.01223 45.0114L8.51092 46.3132C8.27369 46.3031 8.04252 46.374 7.84668 46.5107C7.59128 46.6911 7.42572 46.9727 7.3924 47.2847L7.20565 49.0504L6.6373 48.4831C6.22341 48.0718 5.5632 48.0607 5.13416 48.4578L5.01706 48.5662C4.9676 48.4061 4.88179 48.2552 4.76267 48.1306C4.52544 47.8824 4.1812 47.7588 3.84201 47.8044L3.70876 47.8216L5.54806 45.6324C5.65103 45.5099 5.72472 45.367 5.76611 45.214L7.2541 39.6758C7.87898 37.3499 9.35688 35.3836 11.4142 34.1386L15.431 31.7113C15.7894 31.4945 15.9933 31.0893 15.9519 30.671L15.7046 28.1819L18.5322 28.4362L18.725 26.2653L14.0046 25.8418C11.7443 25.1661 9.71626 23.7621 8.2848 21.8809C7.47821 20.8192 7.13094 19.4547 7.33385 18.1377C7.64983 16.0762 8.57957 14.1919 10.0221 12.6896L10.2129 12.4901C12.3086 10.307 14.9616 8.74893 17.8851 7.9851C19.7789 7.49175 21.7242 7.34081 23.6695 7.53937L26.7343 7.85239C28.2274 8.00536 29.6609 8.42273 31.0015 9.09639L32.8953 10.0466L35.3907 13.6814L35.2646 15.9718C35.1606 17.8368 34.6447 19.6573 33.7846 21.3014L29.1965 23.9991L24.6255 24.5583L24.7557 25.6382L29.4398 25.0669C29.5135 25.0577 29.5851 25.0344 29.6487 24.997L32.4511 23.3488C32.3279 23.5048 32.2098 23.6638 32.0786 23.8147L31.169 24.8572L29.2772 26.0221L30.4129 27.878L32.445 26.6269C32.5379 26.5692 32.6217 26.4993 32.6934 26.4162L33.713 25.2492C34.3722 24.4925 34.9425 23.6658 35.4372 22.7977L37.6429 25.1945L35.7996 26.0181L36.6829 28.0087L39.7669 26.63L46.1308 25.7648L49.9012 27.489C50.0779 27.568 50.2727 27.6015 50.4655 27.5812L52.6915 27.3462L52.4865 27.7321C52.3311 28.0249 52.321 28.3582 52.434 28.6459L52.0676 28.6672C51.6618 28.6884 51.3014 28.9387 51.1358 29.3115C51.0662 29.4705 51.0349 29.6417 51.043 29.8099C50.8623 29.9102 50.7149 30.0601 50.6159 30.2435L50.2808 29.3591C50.1788 29.0886 49.9739 28.8718 49.7135 28.7523L46.4074 27.255C46.152 27.1415 45.8643 27.1284 45.6018 27.2206L39.0704 29.5141C38.8765 29.5819 38.7059 29.7045 38.5787 29.8666L36.2205 32.8571L37.9226 34.2085L40.0859 31.4662L42.0726 30.7682L42.3431 31.1886L41.0177 35.6905L38.927 38.3589L39.781 39.0315L41.9363 36.2811C41.9787 36.2264 42.01 36.1656 42.0302 36.0988L43.1204 32.3962L43.393 32.8196V36.3926H45.5634V32.4985C45.5634 32.2888 45.5029 32.0841 45.3898 31.9079L44.1814 30.0287L45.9117 29.4209L48.4142 30.5534L49.5873 33.6503C49.7468 34.0717 50.1485 34.3503 50.5978 34.3523H50.6018C51.049 34.3523 51.4508 34.0778 51.6133 33.6584L52.1413 32.2969L53.4466 32.9938C53.9039 33.238 54.4641 33.1255 54.7932 32.7264C55.1213 32.3273 55.1243 31.7519 54.8023 31.3497L54.3016 30.7246L55.6776 30.6487C56.153 30.6233 56.5558 30.289 56.6699 29.8251C56.785 29.3611 56.5861 28.8759 56.1783 28.6287L54.8881 27.8476L55.5736 26.5611C55.7634 26.2045 55.7411 25.774 55.516 25.4397C55.2919 25.1054 54.9002 24.923 54.5025 24.9645L50.5342 25.3849L46.7476 23.6527C46.5608 23.5686 46.3549 23.5362 46.1509 23.5645L39.883 24.4165L38.4202 22.826C43.1265 21.2619 48.7655 20.2033 53.808 19.2612L55.2738 18.9866C59.4773 18.2836 63.7384 18.2846 68.0307 18.9978C70.5252 19.2065 72.8642 20.3755 75.1275 21.5071C76.0804 21.9842 77.0556 22.4705 78.049 22.8898C77.8461 23.0935 77.629 23.3032 77.419 23.5119Z" fill="#AD485B"/>
<path d="M26.4981 29.9497L26.058 28.9549L24.6184 29.6032L20.852 30.5453L18.0658 29.9254L17.8316 30.988L20.742 31.6374C20.7803 31.6465 20.8197 31.6506 20.8591 31.6506C20.9035 31.6506 20.9469 31.6455 20.9903 31.6343L24.9697 30.6304L26.4981 29.9497Z" fill="#AD485B"/>
<path d="M30.1495 37.5778L26.2336 38.6223L21.5587 38.1634L21.4527 39.2473L26.2255 39.7163C26.2437 39.7184 26.2609 39.7184 26.279 39.7184C26.3265 39.7184 26.3729 39.7123 26.4194 39.7001L30.6068 38.5817C30.7208 38.5513 30.8228 38.4835 30.8955 38.3903L32.1876 36.7228L31.3295 36.0542L30.1495 37.5778Z" fill="#AD485B"/>
</svg>
